<?xml version="1.0" encoding="utf-8" ?>
<svg xmlns="http://www.w3.org/2000/svg" xmlns:xlink="http://www.w3.org/1999/xlink" width="512" height="512">
	<path d="M375.559 0L477.932 0C483.238 1.93686 487.554 2.31451 491.732 6.63244C500.592 15.791 493.903 28.7615 482.207 31.1183C477.297 32.1077 466.601 31.4973 461.137 31.4957L389.403 31.4888C369.332 31.4923 369.715 32.6276 355.728 46.5989L343.455 58.8852C336.08 66.3548 328.637 73.7793 321.016 80.9982C316.013 80.8536 310.966 80.9894 305.959 80.9922L275.862 80.9982C281.038 74.8254 286.998 69.1482 292.712 63.4745L332.894 23.4674C347.805 8.42179 353.565 3.88899 375.559 0Z"/>
	<path d="M118.948 113.25C119.241 113.224 119.129 113.228 119.425 113.226L308.67 113.24C327.518 113.224 342.812 111.855 357.366 126.465C367.533 136.672 368.624 147.339 368.648 161.014L368.646 176.383L328.875 176.383L79.7836 176.383C80.2433 159.614 77.1683 143.26 88.5816 129.047C96.3251 119.404 106.849 114.583 118.948 113.25Z"/>
	<path d="M66.7119 207.996L370.971 207.981C374.359 207.976 377.909 207.723 381.276 207.996C384.451 213.28 386.907 218.914 389.581 224.458L416.082 279.959C418.635 285.364 421.363 290.78 423.48 296.374C445.468 354.473 426.777 421.047 383.658 464.227C360.247 487.67 330.597 502.68 298.191 509.348C292.454 510.528 286.352 510.589 280.714 512L171.842 512C168.364 511.08 164.73 511.035 161.18 510.566C75.9949 499.326 10.149 425.69 16.6476 338.188C18.9356 307.38 28.6426 289.403 41.284 261.753C49.2194 244.397 57.8364 224.749 66.7119 207.996Z"/>
</svg>
