<?xml version="1.0" encoding="utf-8" ?>
<svg xmlns="http://www.w3.org/2000/svg" xmlns:xlink="http://www.w3.org/1999/xlink" width="1500" height="1500">
	<path fill="#fff" d="M757.602 0.659234C757.772 0.754275 757.955 0.829563 758.113 0.944357C762.118 3.8567 760.283 7.71273 758.951 11.6199C747.911 44.0082 746.047 93.0468 753.73 126.071C763.61 168.54 790.278 204.757 833.804 216.247C853.063 221.33 873.706 223.821 890.875 234.704C902.47 242.054 911.152 253.24 913.979 266.819C915.61 274.656 915.372 289.143 910.533 295.767C909.582 297.069 909.302 297.025 907.804 297.222C903.907 291.766 902.317 284.243 898.63 278.387C898.46 278.118 898.282 277.854 898.108 277.587C887.168 262.507 870.535 255.125 852.252 253.563C843.28 252.796 834.426 253.029 825.469 251.659C795.891 247.134 768.021 234.05 746.98 212.551Q745.829 211.363 744.707 210.146Q743.585 208.93 742.493 207.686Q741.402 206.442 740.341 205.172Q739.281 203.902 738.252 202.606Q737.223 201.31 736.226 199.989Q735.229 198.668 734.265 197.324Q733.301 195.979 732.37 194.61Q731.44 193.242 730.543 191.851Q729.646 190.461 728.784 189.048Q727.922 187.636 727.095 186.203Q726.268 184.769 725.476 183.316Q724.684 181.863 723.929 180.391Q723.173 178.919 722.454 177.429Q721.735 175.938 721.052 174.431Q720.37 172.923 719.725 171.399Q719.08 169.876 718.473 168.336Q717.866 166.797 717.296 165.243Q716.727 163.689 716.196 162.122Q715.665 160.555 715.173 158.975Q714.681 157.395 714.228 155.804Q713.775 154.212 713.361 152.61Q712.948 151.008 712.573 149.396Q712.199 147.784 711.865 146.163Q711.53 144.543 711.236 142.914Q710.941 141.286 710.687 139.651Q710.432 138.016 710.219 136.375Q710.005 134.734 709.831 133.089Q709.657 131.443 709.524 129.794Q709.391 128.144 709.299 126.492Q709.207 124.84 709.155 123.186Q709.103 121.532 709.092 119.877Q709.081 118.222 709.111 116.568C709.887 73.9748 726.816 30.5711 757.602 0.659234Z"/>
	<path fill="#fff" d="M761.846 82.6405Q770.1 82.77 778.349 83.0927Q786.598 83.4154 794.837 83.9312Q803.076 84.4469 811.301 85.1555Q819.526 85.864 827.732 86.765Q835.938 87.6659 844.12 88.7588Q852.303 89.8516 860.458 91.1358Q868.612 92.4199 876.735 93.8947Q884.857 95.3694 892.943 97.034Q901.029 98.6985 909.073 100.552Q917.118 102.405 925.116 104.447Q933.115 106.488 941.064 108.716Q949.013 110.944 956.908 113.357Q964.802 115.771 972.638 118.369Q980.474 120.966 988.247 123.747Q996.02 126.527 1003.73 129.489Q1011.43 132.451 1019.07 135.592Q1026.7 138.733 1034.26 142.053Q1041.82 145.372 1049.3 148.867Q1056.77 152.363 1064.17 156.032Q1071.56 159.702 1078.87 163.543Q1086.18 167.385 1093.39 171.397Q1100.61 175.408 1107.73 179.588Q1114.85 183.767 1121.86 188.112Q1128.88 192.458 1135.8 196.966Q1142.71 201.474 1149.52 206.143Q1156.33 210.812 1163.03 215.639Q1169.72 220.466 1176.31 225.449Q1182.89 230.431 1189.35 235.566Q1195.82 240.702 1202.16 245.987Q1208.5 251.272 1214.71 256.705Q1220.93 262.137 1227.02 267.713Q1233.11 273.29 1239.06 279.007Q1245.36 285.061 1251.52 291.27Q1257.67 297.478 1263.67 303.837Q1269.67 310.196 1275.5 316.702Q1281.34 323.208 1287.02 329.856Q1292.69 336.504 1298.2 343.291Q1303.71 350.078 1309.05 356.999Q1314.39 363.92 1319.55 370.972Q1324.72 378.023 1329.71 385.2Q1334.7 392.377 1339.51 399.676Q1344.32 406.974 1348.95 414.39Q1353.57 421.805 1358.02 429.333Q1362.46 436.861 1366.71 444.497Q1370.97 452.132 1375.03 459.871Q1379.1 467.61 1382.97 475.447Q1386.84 483.284 1390.52 491.214Q1394.19 499.145 1397.67 507.164Q1401.15 515.183 1404.43 523.286Q1407.71 531.389 1410.78 539.57Q1413.86 547.752 1416.74 556.007Q1419.61 564.262 1422.28 572.586Q1424.94 580.91 1427.41 589.298Q1429.87 597.685 1432.12 606.131Q1434.37 614.577 1436.41 623.076Q1438.46 631.575 1440.29 640.122Q1442.12 648.669 1443.74 657.259Q1445.36 665.849 1446.76 674.476Q1448.17 683.103 1449.36 691.763Q1450.55 700.422 1451.53 709.109Q1452.51 717.795 1453.27 726.503Q1454.03 735.211 1454.57 743.935Q1455.12 752.659 1455.45 761.394Q1455.78 770.129 1455.89 778.869Q1455.99 787.435 1455.89 796.001Q1455.78 804.567 1455.47 813.128Q1455.15 821.689 1454.63 830.24Q1454.11 838.79 1453.38 847.326Q1452.65 855.861 1451.72 864.377Q1450.78 872.892 1449.64 881.382Q1448.5 889.872 1447.15 898.332Q1445.8 906.792 1444.25 915.217Q1442.7 923.641 1440.94 932.026Q1439.18 940.41 1437.22 948.75Q1435.26 957.089 1433.1 965.378Q1430.94 973.667 1428.57 981.902Q1426.21 990.136 1423.65 998.31Q1421.08 1006.48 1418.32 1014.59Q1415.56 1022.7 1412.61 1030.74Q1409.65 1038.79 1406.5 1046.75Q1403.35 1054.72 1400.01 1062.61Q1396.67 1070.49 1393.13 1078.3Q1389.6 1086.1 1385.88 1093.82Q1382.15 1101.53 1378.25 1109.16Q1374.34 1116.78 1370.24 1124.3Q1366.15 1131.83 1361.88 1139.25Q1357.6 1146.68 1353.15 1154Q1348.7 1161.32 1344.07 1168.52Q1339.44 1175.73 1334.64 1182.83Q1329.83 1189.92 1324.86 1196.89Q1319.89 1203.87 1314.74 1210.72Q1309.6 1217.57 1304.3 1224.3Q1298.99 1231.02 1293.52 1237.62Q1288.05 1244.21 1282.43 1250.67Q1276.8 1257.13 1271.02 1263.45Q1265.23 1269.77 1259.3 1275.95Q1253.21 1282.29 1246.96 1288.48Q1240.72 1294.66 1234.32 1300.69Q1227.92 1306.72 1221.37 1312.59Q1214.83 1318.45 1208.14 1324.16Q1201.45 1329.86 1194.61 1335.39Q1187.78 1340.93 1180.82 1346.29Q1173.85 1351.65 1166.75 1356.84Q1159.65 1362.02 1152.43 1367.03Q1145.2 1372.04 1137.85 1376.86Q1130.5 1381.69 1123.04 1386.33Q1115.57 1390.97 1107.99 1395.42Q1100.41 1399.88 1092.72 1404.14Q1085.04 1408.4 1077.24 1412.47Q1069.45 1416.54 1061.56 1420.41Q1053.67 1424.29 1045.68 1427.97Q1037.7 1431.64 1029.62 1435.12Q1021.55 1438.59 1013.39 1441.87Q1005.23 1445.14 996.99 1448.21Q988.752 1451.28 980.44 1454.14Q972.128 1457 963.747 1459.66Q955.367 1462.31 946.922 1464.76Q938.478 1467.2 929.975 1469.43Q921.472 1471.67 912.916 1473.69Q904.361 1475.71 895.757 1477.52Q887.154 1479.32 878.508 1480.91Q869.862 1482.5 861.179 1483.88Q852.496 1485.26 843.781 1486.41Q835.067 1487.57 826.326 1488.51Q817.585 1489.45 808.824 1490.18Q800.062 1490.9 791.286 1491.4Q782.509 1491.91 773.723 1492.19Q764.936 1492.47 756.145 1492.54Q747.527 1492.6 738.91 1492.45Q730.293 1492.31 721.682 1491.95Q713.071 1491.59 704.471 1491.02Q695.872 1490.45 687.289 1489.67Q678.706 1488.89 670.144 1487.9Q661.583 1486.92 653.048 1485.72Q644.513 1484.52 636.01 1483.12Q627.507 1481.71 619.041 1480.1Q610.575 1478.48 602.151 1476.67Q593.727 1474.85 585.349 1472.82Q576.972 1470.8 568.647 1468.57Q560.321 1466.34 552.053 1463.91Q543.785 1461.48 535.578 1458.85Q527.372 1456.22 519.232 1453.38Q511.092 1450.55 503.024 1447.52Q494.956 1444.49 486.964 1441.27Q478.972 1438.04 471.061 1434.62Q463.151 1431.2 455.326 1427.59Q447.502 1423.97 439.768 1420.17Q432.033 1416.37 424.395 1412.38Q416.756 1408.39 409.216 1404.21Q401.677 1400.04 394.242 1395.68Q386.808 1391.32 379.481 1386.78Q372.155 1382.24 364.942 1377.52Q357.729 1372.81 350.633 1367.92Q343.537 1363.03 336.563 1357.96Q329.589 1352.9 322.741 1347.67Q315.892 1342.43 309.174 1337.04Q302.455 1331.64 295.871 1326.08Q289.286 1320.52 282.839 1314.8Q276.392 1309.08 270.087 1303.2Q263.782 1297.33 257.622 1291.3Q252.566 1286.35 247.609 1281.3Q242.653 1276.25 237.8 1271.1Q232.946 1265.96 228.197 1260.71Q223.447 1255.47 218.804 1250.13Q214.161 1244.79 209.626 1239.36Q205.091 1233.93 200.666 1228.41Q196.241 1222.88 191.927 1217.28Q187.614 1211.67 183.414 1205.97Q179.214 1200.28 175.13 1194.5Q171.045 1188.72 167.077 1182.87Q163.109 1177.01 159.26 1171.07Q155.41 1165.13 151.681 1159.12Q147.951 1153.11 144.343 1147.02Q140.735 1140.94 137.25 1134.78Q133.765 1128.62 130.404 1122.4Q127.043 1116.17 123.808 1109.88Q120.573 1103.58 117.464 1097.23Q114.356 1090.87 111.376 1084.45Q108.396 1078.04 105.546 1071.56Q102.695 1065.09 99.9754 1058.55Q97.2555 1052.02 94.6672 1045.44Q92.079 1038.85 89.6235 1032.22Q87.1679 1025.58 84.8461 1018.9Q82.5243 1012.21 80.3371 1005.48Q78.1499 998.755 76.0983 991.984Q74.0466 985.212 72.1313 978.401Q70.216 971.59 68.4379 964.741Q66.6597 957.893 65.0194 951.01Q63.3791 944.127 61.8773 937.213Q60.3755 930.299 59.0128 923.356Q57.6501 916.413 56.427 909.444Q55.204 902.475 54.1211 895.483C49.5897 866.2 46.4472 836.112 46.1118 806.467C45.7315 772.843 46.6492 739.683 50.5304 706.237Q51.3652 699.045 52.3475 691.872Q53.3299 684.698 54.4593 677.547Q55.5888 670.395 56.8649 663.268Q58.141 656.141 59.5633 649.042Q60.9855 641.943 62.5532 634.874Q64.121 627.806 65.8336 620.771Q67.5462 613.736 69.4029 606.738Q71.2596 599.74 73.2596 592.781Q75.2597 585.823 77.4023 578.907Q79.5448 571.991 81.829 565.12Q84.1131 558.249 86.5379 551.427Q88.9627 544.605 91.5271 537.834Q94.0915 531.063 96.7944 524.346Q99.4974 517.63 102.338 510.97Q105.178 504.31 108.154 497.71Q111.131 491.109 114.242 484.572Q117.354 478.034 120.599 471.562Q123.844 465.089 127.221 458.685Q130.599 452.281 134.107 445.947Q137.615 439.613 141.252 433.353Q144.89 427.093 148.655 420.909Q152.42 414.725 156.312 408.619Q160.203 402.514 164.22 396.489Q168.236 390.465 172.375 384.524Q176.514 378.584 180.774 372.729Q185.034 366.875 189.413 361.109Q193.793 355.344 198.29 349.669Q202.787 343.995 207.399 338.414Q212.012 332.833 216.738 327.348Q221.464 321.863 226.302 316.477Q231.14 311.09 236.087 305.804Q241.035 300.518 246.09 295.334Q250.534 290.777 255.059 286.3Q259.584 281.824 264.19 277.43Q268.795 273.036 273.479 268.726Q278.163 264.416 282.924 260.191Q287.685 255.966 292.521 251.828Q297.358 247.69 302.269 243.64Q307.179 239.59 312.162 235.629Q317.145 231.668 322.198 227.798Q327.252 223.928 332.375 220.15Q337.497 216.372 342.687 212.687Q347.877 209.002 353.133 205.411Q358.389 201.82 363.708 198.325Q369.028 194.83 374.41 191.431Q379.792 188.033 385.235 184.732Q390.677 181.431 396.178 178.229Q401.68 175.027 407.238 171.925Q412.796 168.823 418.409 165.821Q424.022 162.82 429.689 159.921Q435.356 157.021 441.074 154.225Q446.792 151.428 452.559 148.735Q458.327 146.043 464.142 143.454Q469.957 140.866 475.818 138.383Q481.679 135.901 487.584 133.524Q493.489 131.148 499.436 128.878Q505.383 126.609 511.37 124.447Q517.357 122.285 523.382 120.232Q529.407 118.179 535.468 116.235Q541.529 114.29 547.624 112.456Q553.719 110.622 559.847 108.898Q565.974 107.174 572.132 105.561Q578.289 103.948 584.475 102.446Q590.66 100.945 596.872 99.5553C630.363 92.0488 664.868 86.0151 699.253 85.6673C697.828 97.2647 697.17 108.236 697.668 119.922C681.065 120.357 662.148 123.804 645.721 126.433Q636.568 127.892 627.46 129.604Q618.351 131.315 609.293 133.278Q600.235 135.241 591.235 137.453Q582.235 139.665 573.299 142.125Q564.363 144.585 555.499 147.29Q546.635 149.996 537.849 152.946Q529.062 155.896 520.361 159.087Q511.66 162.279 503.05 165.709Q494.44 169.14 485.928 172.807Q477.417 176.474 469.01 180.375Q460.602 184.276 452.306 188.408Q444.01 192.54 435.831 196.899Q427.652 201.258 419.597 205.842Q411.542 210.426 403.616 215.23Q395.691 220.035 387.901 225.056Q380.111 230.078 372.463 235.313Q366.674 239.281 360.97 243.369Q355.265 247.457 349.648 251.663Q344.03 255.87 338.502 260.194Q332.974 264.517 327.538 268.956Q322.102 273.394 316.76 277.946Q311.418 282.497 306.173 287.16Q300.927 291.822 295.781 296.594Q290.634 301.365 285.589 306.243Q280.543 311.121 275.602 316.104Q270.66 321.087 265.823 326.173Q260.987 331.258 256.258 336.444Q251.529 341.63 246.91 346.913Q242.291 352.197 237.784 357.576Q233.277 362.956 228.883 368.428Q224.49 373.901 220.212 379.464Q215.934 385.028 211.774 390.68Q207.613 396.332 203.572 402.07Q199.532 407.808 195.612 413.629Q191.692 419.451 187.895 425.353Q184.099 431.255 180.426 437.236Q176.754 443.216 173.208 449.272Q169.662 455.329 166.244 461.458Q162.825 467.587 159.536 473.787Q156.247 479.986 153.089 486.253Q149.93 492.521 146.904 498.852Q143.878 505.184 140.985 511.578Q138.092 517.972 135.333 524.426Q132.575 530.879 129.953 537.389Q127.33 543.898 124.845 550.461Q122.36 557.025 120.012 563.639Q117.665 570.252 115.457 576.914Q113.249 583.576 111.181 590.282C102.664 617.79 96.3794 645.683 91.0964 673.97Q137.846 705.383 186.282 734.127C208.502 747.239 231.342 759.494 253.172 773.246C270.935 784.436 276.147 796.901 290.995 810.136C302.128 820.06 339.97 832.454 355.784 838.622C404.673 856.74 451.755 878.579 502.791 890.372C488.23 867.283 476.683 841.626 463.731 817.541C453.399 798.328 441.234 779.91 431.515 760.408C438.478 735.077 445.27 709.49 450.847 683.821Q459.174 645.188 466.026 606.267C468.479 592.804 470.07 578.466 473.7 565.295C474.963 560.715 476.799 556.238 479.377 552.234C486.625 540.984 498.549 531.156 507.927 521.644C521.051 508.332 532.993 494.77 543.771 479.472C546.253 475.949 557.905 460.53 557.381 457.52C550.536 456.162 518.697 478.303 506.922 474.924C506.055 473.586 506.117 473.192 506.867 471.664C508.459 468.423 511.405 465.128 513.489 462.124C520.231 452.409 540.79 425.438 539.452 414.252C539.28 412.815 538.231 412.207 536.956 411.688C532.592 409.912 527.349 409.55 522.742 408.562C510.285 405.892 493.868 401.962 483.625 393.946C479.95 391.071 477.28 387.371 476.769 382.633C476.349 378.736 477.666 375.115 480.165 372.142C492.345 357.653 529.451 353.821 547.95 351.709C549.939 343.282 551.295 331.227 555.781 323.811C558.055 320.051 563.299 318.71 567.349 317.831C578.174 315.48 629.396 314.817 637.518 321.75C642.319 325.848 641.551 345.358 642.505 352.073C663.592 353.982 693.58 358.205 711.539 369.211C716.286 372.12 721.27 376.369 722.459 382.092C723.217 385.738 721.964 389.318 719.759 392.222C707.693 408.109 670.07 411.596 651.468 414.062C647.621 433.023 644.954 452.34 640.591 471.172Q635.898 472.234 631.221 473.362C629.289 479.139 629.529 485.5 627.434 491.182C625.106 497.494 613.472 491.989 608.914 496.803C609.18 498.455 608.992 499.646 610.467 500.676C614.299 503.352 621.047 505.15 625.491 507.05C640.901 513.636 655.708 522.276 667.365 534.477C693.997 562.351 696.86 600.544 697.968 637.09C698.547 656.194 698.415 675.16 697.954 694.261C706.889 692.274 725.884 684.247 734.03 688.364C737.82 690.28 738.59 694.602 739.7 698.313Q755.066 696.148 770.314 693.268C788.081 689.8 801.903 688.384 812.728 672.338C798.806 658.799 788.153 644.119 783.035 625.141C773.771 590.781 785.14 558.769 802.05 529.035C796.854 507.973 777.971 508.512 776.36 489.325C776.044 485.572 776.063 480.938 778.974 478.098C783.018 474.15 827.473 476.146 836.147 476.208Q837.073 467.963 838.443 459.78C843.147 431.457 849.818 400.041 867.266 376.654C877.803 362.531 894.228 346.41 906.431 332.942C913.828 324.778 927.451 307.572 935.754 302.04C937.187 301.086 937.795 301.102 939.475 301.659C944.979 303.481 950.31 311.949 952.842 316.936C937.052 336.645 919.8 355.433 903.25 374.534C894.81 384.275 883.701 394.794 877.847 406.359C871.38 419.137 863.464 461.411 862.499 476.399C872.079 476.179 928.877 475.437 932.417 479.303C933.623 480.621 934.013 483.136 934.108 484.865C934.872 498.785 920.564 506.019 915.129 517.023C912.414 522.522 912.412 527.706 912.319 533.679C922.994 551.518 931.629 569.902 932.996 590.962C934.506 614.247 927.091 633.227 911.794 650.527C912.956 657.497 911.22 664.609 908.133 670.882C903.133 681.043 894.78 688.744 885.668 695.22C869.26 706.881 850.153 714.79 831.644 722.457C803.269 734.212 774.425 744.375 745.357 754.238C744.727 757.401 744.217 761.311 742.601 764.116C741.146 766.643 738.483 768.939 735.878 770.209C728.347 773.878 708.259 776.34 698.802 778.49Q699.393 824.323 701.575 870.108C720.074 872.038 739.707 871.077 758.328 870.967C831.219 870.536 990.667 864.063 1048.98 821.303C1056.71 815.635 1064.5 807.78 1065.72 797.827C1069 770.895 1021.96 744.85 1001.85 734.974C995.053 731.638 974.897 724.972 971.591 719.305C970.573 717.561 970.699 717.042 971.024 715.17C972.346 713.543 973.392 712.378 975.533 711.787C979.531 710.684 986.295 712.931 990.32 713.706C1020.22 719.462 1051.61 729.254 1077.47 745.529C1096.49 757.502 1113.43 774.387 1118.33 797.041C1134.51 871.776 1013.59 934.071 965.402 973.337C943.183 991.443 924.807 1010.69 909.364 1034.99C950.821 1026.77 991.541 1017.48 1032.02 1005.13C1163.89 964.867 1329.21 887.145 1420.14 780.264C1420.64 751.153 1417.59 721.115 1413.44 692.33Q1412.54 686.056 1411.51 679.799Q1410.49 673.543 1409.35 667.307Q1408.21 661.071 1406.96 654.858Q1405.7 648.645 1404.32 642.456Q1402.95 636.268 1401.46 630.107Q1399.96 623.946 1398.36 617.814Q1396.75 611.682 1395.02 605.582Q1393.3 599.482 1391.46 593.415Q1389.62 587.348 1387.67 581.318Q1385.71 575.287 1383.65 569.294Q1381.58 563.302 1379.4 557.349Q1377.22 551.396 1374.93 545.486Q1372.64 539.576 1370.23 533.71Q1367.83 527.844 1365.31 522.025Q1362.8 516.206 1360.18 510.435Q1357.55 504.664 1354.82 498.944Q1352.09 493.224 1349.25 487.557Q1346.41 481.889 1343.46 476.277Q1340.51 470.664 1337.46 465.108Q1334.41 459.553 1331.25 454.055Q1328.09 448.558 1324.83 443.122Q1321.57 437.686 1318.21 432.312Q1314.85 426.938 1311.38 421.629Q1307.92 416.32 1304.35 411.077Q1300.79 405.834 1297.13 400.66Q1293.47 395.486 1289.71 390.381Q1285.95 385.277 1282.09 380.245Q1278.24 375.213 1274.29 370.255Q1270.34 365.296 1266.29 360.414Q1262.25 355.531 1258.12 350.725Q1253.98 345.92 1249.76 341.194Q1245.53 336.468 1241.22 331.822Q1236.59 326.841 1231.86 321.956Q1227.13 317.07 1222.31 312.282Q1217.48 307.493 1212.55 302.804Q1207.63 298.114 1202.61 293.526Q1197.59 288.937 1192.48 284.451Q1187.38 279.966 1182.17 275.585Q1176.97 271.204 1171.69 266.929Q1166.4 262.655 1161.03 258.489Q1155.65 254.322 1150.19 250.266Q1144.74 246.21 1139.2 242.265Q1133.66 238.321 1128.04 234.489Q1122.43 230.658 1116.73 226.942Q1111.04 223.225 1105.27 219.625Q1099.5 216.025 1093.66 212.543Q1087.82 209.061 1081.91 205.698Q1076 202.335 1070.02 199.093Q1064.05 195.851 1058.01 192.731Q1051.96 189.611 1045.86 186.614Q1039.76 183.618 1033.59 180.746Q1027.43 177.873 1021.21 175.127Q1014.99 172.381 1008.72 169.761Q1002.44 167.142 996.115 164.65Q989.788 162.158 983.412 159.796Q977.037 157.433 970.614 155.201Q964.192 152.968 957.725 150.866Q951.258 148.765 944.75 146.795Q938.243 144.825 931.696 142.988Q925.149 141.15 918.567 139.446Q911.984 137.742 905.369 136.172Q898.753 134.602 892.107 133.167Q885.46 131.731 878.786 130.431Q872.112 129.131 865.413 127.967C831.833 122.124 798.296 119.457 764.281 118.1C761.619 106.132 760.568 94.864 761.846 82.6405ZM1020.3 897.307C940.842 921.148 833.988 963.146 791.998 1040.38C775.735 1070.29 772.608 1103.61 782.469 1136.13C807.46 1218.57 905.83 1283.48 977.698 1321.48C1011.33 1339.27 1046.47 1355.79 1082.12 1369.14L1090.76 1364.27C1126.83 1342.47 1155.77 1320.6 1188.48 1294.28C1093.87 1266.17 935.629 1201.73 886.536 1110.29C872.296 1083.78 867.561 1054.27 876.596 1025.22C893.143 972.002 946.889 935.18 994.16 910.692C997.043 909.198 1020.68 898.389 1021.03 897.39L1020.3 897.307ZM747.242 894.718C550.128 903.064 315.565 979.399 157.894 1098.38C175.821 1131.5 195.512 1162.6 217.981 1192.83C229.525 1207.66 241.244 1222.56 254.155 1236.25C272.398 1146.57 344.207 1076.75 417.759 1028.09C524.109 957.718 643.641 920.841 767.145 894.224C760.519 894.268 753.849 894.158 747.242 894.718ZM810.508 931.671C713.553 959.713 610.142 1009.03 559.188 1101.16C530.486 1153.05 525.088 1212.2 541.506 1268.88C558.429 1327.3 595.058 1377.46 637.803 1419.8C649.359 1431.25 661.657 1443.08 674.77 1452.72Q701.559 1455.59 728.48 1456.63Q753.085 1457.41 777.687 1456.54C694.869 1404.17 612.793 1325.31 590.43 1226.33Q589.844 1223.82 589.321 1221.29Q588.799 1218.76 588.339 1216.22Q587.88 1213.68 587.484 1211.13Q587.089 1208.58 586.757 1206.02Q586.426 1203.46 586.158 1200.89Q585.891 1198.33 585.688 1195.75Q585.485 1193.18 585.346 1190.6Q585.208 1188.02 585.134 1185.44Q585.06 1182.86 585.051 1180.28Q585.041 1177.7 585.096 1175.12Q585.152 1172.54 585.271 1169.96Q585.391 1167.38 585.576 1164.81Q585.76 1162.23 586.009 1159.67Q586.258 1157.1 586.571 1154.53Q586.884 1151.97 587.261 1149.42Q587.638 1146.87 588.079 1144.32Q588.519 1141.78 589.024 1139.25Q589.528 1136.72 590.096 1134.2Q590.663 1131.68 591.294 1129.18Q591.924 1126.67 592.617 1124.19Q593.31 1121.7 594.065 1119.23Q594.82 1116.76 595.637 1114.32Q596.453 1111.87 597.331 1109.44Q598.208 1107.01 599.146 1104.61Q600.085 1102.2 601.083 1099.82Q602.081 1097.44 603.138 1095.09Q604.195 1092.73 605.311 1090.41Q606.427 1088.08 607.601 1085.78Q608.774 1083.48 610.005 1081.21Q611.236 1078.94 612.524 1076.71Q613.811 1074.47 615.154 1072.26Q616.497 1070.06 617.895 1067.89C652.79 1012.78 711.164 972.148 770.735 947.52C776.234 945.247 809.551 933.518 811.487 931.706L810.508 931.671Z"/>
</svg>
